<?xml version="1.0" encoding="UTF-8" standalone="no"?>
<!-- Created with Inkscape (http://www.inkscape.org/) -->

<svg
   width="99.789024mm"
   height="61.476292mm"
   viewBox="0 0 99.789024 61.476292"
   version="1.1"
   id="svg1"
   xml:space="preserve"
   inkscape:version="1.3 (0e150ed6c4, 2023-07-21)"
   sodipodi:docname="capybara.svg"
   inkscape:export-filename="capybara.png"
   inkscape:export-xdpi="203.63"
   inkscape:export-ydpi="203.63"
   xmlns:inkscape="http://www.inkscape.org/namespaces/inkscape"
   xmlns:sodipodi="http://sodipodi.sourceforge.net/DTD/sodipodi-0.dtd"
   xmlns="http://www.w3.org/2000/svg"
   xmlns:svg="http://www.w3.org/2000/svg"><sodipodi:namedview
     id="namedview1"
     pagecolor="#ffffff"
     bordercolor="#000000"
     borderopacity="0.25"
     inkscape:showpageshadow="2"
     inkscape:pageopacity="0.0"
     inkscape:pagecheckerboard="0"
     inkscape:deskcolor="#d1d1d1"
     inkscape:document-units="mm"
     inkscape:zoom="2"
     inkscape:cx="198"
     inkscape:cy="126.25"
     inkscape:window-width="1920"
     inkscape:window-height="1017"
     inkscape:window-x="-8"
     inkscape:window-y="-8"
     inkscape:window-maximized="1"
     inkscape:current-layer="layer1" /><defs
     id="defs1" /><g
     inkscape:label="Warstwa 1"
     inkscape:groupmode="layer"
     id="layer1"
     transform="translate(-99.028033,-217.21369)"><path
       style="fill:#a67846;fill-opacity:1;stroke:#000000;stroke-width:0.969509;stroke-linecap:round;stroke-linejoin:bevel;stroke-dasharray:none;stroke-opacity:1"
       d="m 125.324,221.68283 c 5.4669,-6.92078 4.76132,0.14738 4.76132,0.14738"
       id="path39"
       sodipodi:nodetypes="cc" /><path
       style="fill:#a67846;fill-opacity:1;stroke:#000000;stroke-width:0.969509;stroke-dasharray:none;stroke-opacity:1"
       d="m 125.15363,221.87704 -9.57476,4.2801 c 0,0 -6.46913,2.04268 -13.73111,4.59926 -0.66452,1.51103 -0.94477,3.09214 -1.00101,4.63933 l -0.003,0.0666 c -0.17045,5.32932 2.44843,10.21353 2.44843,10.21353 l 14.92651,-2.8888 c 1.44452,7.7041 7.46351,16.61191 7.46351,16.61191 v 17.38094 h 6.01911 l 5.05567,-14.73263 c 20.35996,13.13837 38.7459,15.18104 38.7459,15.18104 21.45004,0 21.10945,-14.64045 21.10945,-14.64045 v -5.44745 c -0.23902,-7.6487 -2.38666,-12.9905 -5.0737,-16.70209 -3.26139,-4.50491 -7.31727,-6.60831 -9.71904,-7.52212 -1.25689,-0.4782 -2.06115,-0.63077 -2.06115,-0.63077 0,0 -0.21251,-0.48131 -43.75097,-8.39738 l -2.60775,-0.74651 c -1.70004,-1.37553 -4.76227,-1.50187 -8.24608,-1.26451 z"
       id="path26"
       sodipodi:nodetypes="ccccccccccccccsscccc" /><path
       style="fill:#a67846;fill-opacity:1;stroke:#000000;stroke-width:1.03236;stroke-linecap:round;stroke-linejoin:miter;stroke-dasharray:none;stroke-opacity:1"
       d="m 176.56801,277.21469 c -18.52594,-0.33603 -23.14666,-0.37116 -23.14666,-0.37116 -3.17946,-0.10848 -0.481,-1.72421 -0.481,-1.72421 -1.52291,-0.57362 0.19624,-1.61571 0.19624,-1.61571 l 10.25482,-0.89586"
       id="path36"
       sodipodi:nodetypes="ccccc" /><path
       style="fill:#a67846;fill-opacity:1;stroke:#000000;stroke-width:0.969509;stroke-linecap:round;stroke-linejoin:bevel;stroke-dasharray:none;stroke-opacity:1"
       d="m 128.7621,223.08134 c 8.36905,-9.16541 5.16944,3.54832 5.16944,3.54832"
       id="path39-7"
       sodipodi:nodetypes="cc" /><path
       style="fill:none;fill-opacity:1;stroke:#000000;stroke-width:0.969509;stroke-dasharray:none;stroke-opacity:1"
       d="m 101.90784,242.54619 c 2.43764,0.57179 3.22008,-1.11349 3.22008,-1.11349 l 0.15048,-0.42132"
       id="path18" /><path
       style="fill:none;fill-opacity:1;stroke:none;stroke-width:0.105396;stroke-linecap:round;stroke-linejoin:miter;stroke-dasharray:none;stroke-opacity:1"
       d="m 100.53141,235.41179 c 3.77891,2.75981 5.48842,-1.142 5.48842,-1.142 v -0.0476"
       id="path23" /><path
       style="fill:none;fill-opacity:1;stroke:none;stroke-width:0.0969509;stroke-linecap:round;stroke-linejoin:miter;stroke-dasharray:none;stroke-opacity:1"
       d="m 103.71918,230.32775 c 5.02203,6.4265 3.74124,14.00366 3.74124,14.00366"
       id="path24"
       sodipodi:nodetypes="cc" /><path
       style="fill:#b68d5c;fill-opacity:1;stroke:none;stroke-width:0;stroke-linecap:round;stroke-linejoin:miter;stroke-dasharray:none;stroke-opacity:1"
       d="m 103.38302,244.75861 c -0.26981,-0.58911 -0.65108,-1.52467 -0.65108,-1.59763 0,-0.022 0.0603,-0.0292 0.24374,-0.0292 1.01933,-2.5e-4 2.01269,-0.53243 2.49383,-1.33572 0.0994,-0.16595 0.26334,-0.59265 0.23739,-0.61791 -0.017,-0.0165 -0.83975,-0.31358 -0.86857,-0.31358 -0.009,0 -0.0491,0.0905 -0.0887,0.2011 -0.17448,0.48778 -0.67635,0.90142 -1.26952,1.04633 -0.22542,0.0551 -0.63284,0.0807 -0.91255,0.0574 l -0.19714,-0.0164 -0.0784,-0.25309 c -0.41759,-1.34764 -0.71816,-2.74362 -0.86243,-4.00547 -0.07,-0.61197 -0.1306,-1.61018 -0.11045,-1.90877 5.2e-4,-0.009 0.10144,0.0289 0.21679,0.0832 1.11219,0.52392 2.17574,0.49302 3.08665,-0.0897 0.46609,-0.29816 0.95691,-0.8315 1.28028,-1.39122 0.0737,-0.12753 0.1303,-0.24889 0.13683,-0.23294 0.69368,1.69381 1.11313,3.2566 1.34942,5.03579 0.19535,1.4709 0.22831,3.1138 0.0885,4.4099 -0.0215,0.19953 -0.0395,0.40116 -0.0401,0.44807 -5.1e-4,0.0557 -0.005,0.13486 -0.0269,0.14139 -0.0654,0.0192 -3.80099,0.75169 -3.83562,0.75169 -0.0229,0 -0.0948,-0.17118 -0.19196,-0.38321 z"
       id="path34"
       sodipodi:nodetypes="sscsssssscsscsssssscssss" /><path
       style="fill:#866857;fill-opacity:1;stroke:#000000;stroke-width:0;stroke-linecap:round;stroke-linejoin:miter;stroke-dasharray:none;stroke-opacity:1"
       d="m 102.62225,236.42136 c -0.32099,-0.0552 -0.70666,-0.1775 -1.03006,-0.32678 l -0.27404,-0.10831 0.0142,-0.65964 c 0.0306,-1.42355 0.35687,-2.87933 0.76813,-3.92091 l 0.10217,-0.25878 0.82422,-0.29136 0.82421,-0.29137 0.22268,0.30928 c 0.5954,0.82698 1.04135,1.59177 1.55236,2.65381 l 0.41245,0.82651 -0.11171,0.19628 c -0.1954,0.34329 -0.48184,0.81486 -0.87925,1.12994 -0.74081,0.58736 -1.56653,0.88887 -2.42535,0.74133 z"
       id="path35"
       sodipodi:nodetypes="sscsscccsscssss" /><ellipse
       style="fill:#000000;fill-opacity:1;stroke:#000000;stroke-width:0.969509;stroke-linecap:round;stroke-linejoin:bevel;stroke-dasharray:none;stroke-opacity:1"
       id="path37"
       cx="26.296978"
       cy="253.98048"
       rx="0.70002919"
       ry="0.24373485"
       transform="rotate(-18.017207)" /><ellipse
       style="fill:#ffffff;fill-opacity:1;stroke:#000000;stroke-width:1.71065;stroke-linecap:round;stroke-linejoin:bevel;stroke-dasharray:none;stroke-opacity:1"
       id="path37-6"
       cx="47.50779"
       cy="256.38855"
       rx="1.2367667"
       ry="0.42950115"
       transform="matrix(0.9512543,-0.30840761,0.31019963,0.95067144,0,0)" /><ellipse
       style="fill:#ffffff;fill-opacity:1;stroke:none;stroke-width:0.349305;stroke-linecap:round;stroke-linejoin:bevel;stroke-dasharray:none;stroke-opacity:1"
       id="path38"
       cx="125.552"
       cy="228.74513"
       rx="0.96360284"
       ry="0.88424742" /><path
       style="fill:none;fill-opacity:1;stroke:#866857;stroke-width:0.0969509;stroke-linecap:round;stroke-linejoin:bevel;stroke-dasharray:none;stroke-opacity:1"
       d="m 106.18639,238.44044 c 3.72959,5.49263 4.02166,11.52719 4.02166,11.52719"
       id="path41"
       sodipodi:nodetypes="cc" /><path
       style="fill:none;fill-opacity:1;stroke:#866857;stroke-width:0.0778627;stroke-linecap:round;stroke-linejoin:bevel;stroke-dasharray:none;stroke-opacity:1"
       d="m 106.14301,239.6622 c 2.55785,5.1656 2.75816,10.84086 2.75816,10.84086"
       id="path41-8"
       sodipodi:nodetypes="cc" /><path
       style="fill:none;fill-opacity:1;stroke:#866857;stroke-width:0.0969509;stroke-linecap:round;stroke-linejoin:bevel;stroke-dasharray:none;stroke-opacity:1"
       d="m 105.23818,239.00448 c 2.57952,6.1176 1.68198,12.09219 1.68198,12.09219"
       id="path41-9"
       sodipodi:nodetypes="cc" /></g></svg>
